<mxfile host="app.diagrams.net" modified="2024-07-23T09:05:14.395Z" agent="Mozilla/5.0 (Windows NT 10.0; Win64; x64; rv:128.0) Gecko/20100101 Firefox/128.0" etag="sE5ACGynJA6y62pUQd4v" version="24.7.3" type="github">
  <diagram id="C5RBs43oDa-KdzZeNtuy" name="Page-1">
    <mxGraphModel dx="1050" dy="1747" grid="1" gridSize="10" guides="1" tooltips="1" connect="1" arrows="1" fold="1" page="1" pageScale="1" pageWidth="827" pageHeight="1169" math="0" shadow="0">
      <root>
        <mxCell id="WIyWlLk6GJQsqaUBKTNV-0" />
        <mxCell id="WIyWlLk6GJQsqaUBKTNV-1" parent="WIyWlLk6GJQsqaUBKTNV-0" />
        <mxCell id="DBZxXCBIh9t4KVO2n906-11" style="edgeStyle=orthogonalEdgeStyle;rounded=0;orthogonalLoop=1;jettySize=auto;html=1;entryX=0.5;entryY=0;entryDx=0;entryDy=0;" edge="1" parent="WIyWlLk6GJQsqaUBKTNV-1" source="DBZxXCBIh9t4KVO2n906-5">
          <mxGeometry relative="1" as="geometry">
            <mxPoint x="215" y="210" as="targetPoint" />
          </mxGeometry>
        </mxCell>
        <mxCell id="DBZxXCBIh9t4KVO2n906-5" value="&lt;div&gt;increment&lt;/div&gt;&lt;div&gt;cart[selectedCat][selectedItem] by 1&lt;/div&gt;" style="rounded=0;whiteSpace=wrap;html=1;" vertex="1" parent="WIyWlLk6GJQsqaUBKTNV-1">
          <mxGeometry x="110" y="110" width="210" height="50" as="geometry" />
        </mxCell>
        <mxCell id="DBZxXCBIh9t4KVO2n906-17" style="edgeStyle=orthogonalEdgeStyle;rounded=0;orthogonalLoop=1;jettySize=auto;html=1;entryX=0.5;entryY=0;entryDx=0;entryDy=0;exitX=0.5;exitY=1;exitDx=0;exitDy=0;exitPerimeter=0;" edge="1" parent="WIyWlLk6GJQsqaUBKTNV-1" source="DBZxXCBIh9t4KVO2n906-18" target="DBZxXCBIh9t4KVO2n906-5">
          <mxGeometry relative="1" as="geometry">
            <mxPoint x="215" y="70" as="sourcePoint" />
          </mxGeometry>
        </mxCell>
        <mxCell id="DBZxXCBIh9t4KVO2n906-18" value="start" style="strokeWidth=2;html=1;shape=mxgraph.flowchart.terminator;whiteSpace=wrap;" vertex="1" parent="WIyWlLk6GJQsqaUBKTNV-1">
          <mxGeometry x="165" width="100" height="60" as="geometry" />
        </mxCell>
        <mxCell id="DBZxXCBIh9t4KVO2n906-19" value="end" style="strokeWidth=2;html=1;shape=mxgraph.flowchart.terminator;whiteSpace=wrap;" vertex="1" parent="WIyWlLk6GJQsqaUBKTNV-1">
          <mxGeometry x="165" y="330" width="100" height="60" as="geometry" />
        </mxCell>
        <object label="" id="DBZxXCBIh9t4KVO2n906-20">
          <mxCell style="verticalLabelPosition=bottom;verticalAlign=top;html=1;shape=process;whiteSpace=wrap;rounded=1;size=0.14;arcSize=6;" vertex="1" parent="WIyWlLk6GJQsqaUBKTNV-1">
            <mxGeometry x="155" y="210" width="120" height="80" as="geometry" />
          </mxCell>
        </object>
        <mxCell id="DBZxXCBIh9t4KVO2n906-21" value="update_labels" style="text;html=1;align=center;verticalAlign=middle;whiteSpace=wrap;rounded=0;" vertex="1" parent="WIyWlLk6GJQsqaUBKTNV-1">
          <mxGeometry x="185" y="235" width="60" height="30" as="geometry" />
        </mxCell>
        <mxCell id="DBZxXCBIh9t4KVO2n906-22" style="edgeStyle=orthogonalEdgeStyle;rounded=0;orthogonalLoop=1;jettySize=auto;html=1;exitX=0.5;exitY=1;exitDx=0;exitDy=0;entryX=0.5;entryY=0;entryDx=0;entryDy=0;entryPerimeter=0;" edge="1" parent="WIyWlLk6GJQsqaUBKTNV-1" source="DBZxXCBIh9t4KVO2n906-20" target="DBZxXCBIh9t4KVO2n906-19">
          <mxGeometry relative="1" as="geometry" />
        </mxCell>
      </root>
    </mxGraphModel>
  </diagram>
</mxfile>
